<svg width="30" height="30" viewBox="0 0 30 30" fill="none" xmlns="http://www.w3.org/2000/svg">
<circle cx="15" cy="15" r="15" fill="#FAAE2C"/>
<path d="M18.75 9H20.25C20.6478 9 21.0293 9.15804 21.3106 9.43934C21.5919 9.72064 21.75 10.1022 21.75 10.5V15C21.75 15.3978 21.5919 15.7794 21.3106 16.0607C21.0293 16.342 20.6478 16.5 20.25 16.5H18.375M13.5 16.5H9.92695C9.6713 16.5 9.41989 16.4346 9.1966 16.3102C8.97331 16.1857 8.78553 16.0062 8.65111 15.7887C8.51668 15.5713 8.44006 15.3231 8.42853 15.0677C8.417 14.8123 8.47093 14.5582 8.5852 14.3295L11.2102 9.0795C11.3347 8.83026 11.5262 8.62064 11.7632 8.47413C12.0002 8.32762 12.2733 8.25001 12.552 8.25H15.5655C15.6881 8.25007 15.8102 8.26519 15.9292 8.295L18.7492 9L13.5 16.5ZM13.4992 16.5V20.25C13.4992 20.6478 13.6572 21.0294 13.9385 21.3107C14.2198 21.592 14.6014 21.75 14.9992 21.75H15.0712C15.4462 21.75 15.75 21.4463 15.75 21.072C15.75 20.5358 15.9082 20.0122 16.206 19.566L18.75 15.75V9L13.4992 16.5ZM13.5 16.5H15H13.5Z" stroke="#00473E" stroke-width="2" stroke-linecap="round" stroke-linejoin="round"/>
</svg>
