<svg width="31" height="31" viewBox="0 0 31 31" fill="none" xmlns="http://www.w3.org/2000/svg">
<circle cx="15.25" cy="15.25" r="15.25" fill="#FAAE2C"/>
<path d="M11.1198 21.8583H9.46776C9.0296 21.8583 8.60938 21.6843 8.29956 21.3744C7.98973 21.0646 7.81567 20.6444 7.81567 20.2063V15.25C7.81567 14.8118 7.98973 14.3916 8.29956 14.0818C8.60938 13.772 9.0296 13.5979 9.46776 13.5979H11.5329M16.9021 13.5979H20.8374C21.119 13.5979 21.3959 13.6699 21.6418 13.807C21.8877 13.9441 22.0945 14.1418 22.2426 14.3813C22.3907 14.6208 22.475 14.8942 22.4877 15.1755C22.5004 15.4567 22.441 15.7366 22.3152 15.9885L19.424 21.7708C19.2868 22.0454 19.0758 22.2764 18.8146 22.4377C18.5534 22.5991 18.2524 22.6845 17.9454 22.6844H14.6272C14.4926 22.6844 14.3579 22.6679 14.2266 22.6348L11.1198 21.8583L16.9021 13.5979ZM16.9021 13.5979V9.46771C16.9021 9.02955 16.7281 8.60933 16.4182 8.29951C16.1084 7.98968 15.6882 7.81562 15.25 7.81562H15.1716C14.7586 7.81562 14.424 8.15017 14.424 8.56319C14.424 9.15299 14.2497 9.72956 13.9218 10.2202L11.1198 14.424V21.8583L16.9021 13.5979ZM16.9021 13.5979H15.25H16.9021Z" stroke="#00473E" stroke-width="2" stroke-linecap="round" stroke-linejoin="round"/>
</svg>
