<svg width="18" height="18" viewBox="0 0 18 18" fill="none" xmlns="http://www.w3.org/2000/svg">
<path d="M7.5 9H10.5M3.75 6H14.25H3.75ZM3.75 6C3.35218 6 2.97064 5.84196 2.68934 5.56066C2.40804 5.27936 2.25 4.89782 2.25 4.5C2.25 4.10218 2.40804 3.72064 2.68934 3.43934C2.97064 3.15804 3.35218 3 3.75 3H14.25C14.6478 3 15.0294 3.15804 15.3107 3.43934C15.592 3.72064 15.75 4.10218 15.75 4.5C15.75 4.89782 15.592 5.27936 15.3107 5.56066C15.0294 5.84196 14.6478 6 14.25 6H3.75ZM3.75 6V13.5C3.75 13.8978 3.90804 14.2794 4.18934 14.5607C4.47064 14.842 4.85218 15 5.25 15H12.75C13.1478 15 13.5294 14.842 13.8107 14.5607C14.092 14.2794 14.25 13.8978 14.25 13.5V6H3.75Z" stroke="#D8779A" stroke-width="2" stroke-linecap="round" stroke-linejoin="round"/>
</svg>
