<svg width="21" height="21" viewBox="0 0 21 21" fill="none" xmlns="http://www.w3.org/2000/svg">
<path d="M3.5 6.125H17.5M16.625 6.125L15.8664 16.7493C15.8349 17.1908 15.6374 17.604 15.3135 17.9056C14.9896 18.2073 14.5634 18.375 14.1208 18.375H6.87925C6.43662 18.375 6.01043 18.2073 5.68652 17.9056C5.36262 17.604 5.16505 17.1908 5.13363 16.7493L4.375 6.125H16.625ZM8.75 9.625V14.875V9.625ZM12.25 9.625V14.875V9.625ZM13.125 6.125V3.5C13.125 3.26794 13.0328 3.04538 12.8687 2.88128C12.7046 2.71719 12.4821 2.625 12.25 2.625H8.75C8.51794 2.625 8.29538 2.71719 8.13128 2.88128C7.96719 3.04538 7.875 3.26794 7.875 3.5V6.125H13.125Z" stroke="#C4C4C4" stroke-width="2" stroke-linecap="round" stroke-linejoin="round"/>
</svg>
